<svg width="249" height="26" viewBox="0 0 249 26" fill="none" xmlns="http://www.w3.org/2000/svg">
<path d="M3.516 13.792L14.268 1.216H11.508V0.999999H17.256V1.216H14.568L3.816 13.792H3.516ZM0.456 19V18.784H2.616V1.216H0.456V0.999999H8.748V1.216H6.348V18.784H8.508V19H0.456ZM9.708 19V18.784H12.036L6.948 9.844L9.42 7.072L16.344 18.784H18.336V19H9.708ZM22.4396 4.852C21.8716 4.852 21.3876 4.656 20.9876 4.264C20.5956 3.872 20.3996 3.388 20.3996 2.812C20.3996 2.236 20.5956 1.752 20.9876 1.36C21.3876 0.967999 21.8716 0.771999 22.4396 0.771999C23.0236 0.771999 23.5076 0.967999 23.8916 1.36C24.2836 1.752 24.4796 2.236 24.4796 2.812C24.4796 3.388 24.2836 3.872 23.8916 4.264C23.5076 4.656 23.0236 4.852 22.4396 4.852ZM24.1196 7.96V18.784H25.7036V19H19.1756V18.784H20.7596V8.176H19.1756V7.96H24.1196ZM31.6517 7.96V18.784H32.8157V19H26.7197V18.784H28.3037V8.176H26.7197V7.96H31.6517ZM38.4917 11.344V18.784H39.6557V19H33.9797V18.784H35.1437V11.452C35.1437 10.78 35.1157 10.228 35.0597 9.796C35.0117 9.356 34.9117 9.032 34.7597 8.824C34.6077 8.608 34.3837 8.5 34.0877 8.5C33.6477 8.5 33.2717 8.66 32.9597 8.98C32.6477 9.292 32.3957 9.704 32.2037 10.216C32.0117 10.72 31.8717 11.272 31.7837 11.872C31.6957 12.464 31.6517 13.048 31.6517 13.624L31.5077 13.672C31.5077 13.088 31.5517 12.456 31.6397 11.776C31.7277 11.088 31.8997 10.436 32.1557 9.82C32.4197 9.204 32.8037 8.7 33.3077 8.308C33.8117 7.916 34.4797 7.72 35.3117 7.72C36.1117 7.72 36.7437 7.876 37.2077 8.188C37.6717 8.5 37.9997 8.932 38.1917 9.484C38.3917 10.028 38.4917 10.648 38.4917 11.344ZM45.3317 11.344V18.784H46.9157V19H40.8197V18.784H41.9837V11.452C41.9837 10.78 41.9557 10.228 41.8997 9.796C41.8437 9.356 41.7357 9.032 41.5757 8.824C41.4237 8.608 41.1997 8.5 40.9037 8.5C40.4557 8.5 40.0797 8.66 39.7757 8.98C39.4717 9.292 39.2237 9.704 39.0317 10.216C38.8477 10.72 38.7117 11.272 38.6237 11.872C38.5357 12.464 38.4917 13.048 38.4917 13.624L38.3477 13.672C38.3477 13.088 38.3877 12.456 38.4677 11.776C38.5477 11.088 38.7157 10.436 38.9717 9.82C39.2277 9.204 39.6077 8.7 40.1117 8.308C40.6157 7.916 41.2877 7.72 42.1277 7.72C42.9277 7.72 43.5597 7.876 44.0237 8.188C44.4877 8.5 44.8197 8.932 45.0197 9.484C45.2277 10.028 45.3317 10.648 45.3317 11.344ZM56.6895 19.24C55.6495 19.24 54.8055 18.872 54.1575 18.136C53.5175 17.4 53.1055 16.368 52.9215 15.04V19H47.9775V18.784H49.5615V1.216H47.9775V0.999999H52.9215V11.92C53.1055 10.592 53.5175 9.564 54.1575 8.836C54.7975 8.108 55.6415 7.744 56.6895 7.744C57.5535 7.744 58.3695 7.972 59.1375 8.428C59.9135 8.884 60.5415 9.54 61.0215 10.396C61.5015 11.252 61.7415 12.28 61.7415 13.48C61.7415 14.68 61.5015 15.712 61.0215 16.576C60.5415 17.432 59.9135 18.092 59.1375 18.556C58.3695 19.012 57.5535 19.24 56.6895 19.24ZM55.9215 18.772C56.3855 18.772 56.7615 18.572 57.0495 18.172C57.3455 17.764 57.5615 17.168 57.6975 16.384C57.8415 15.592 57.9135 14.624 57.9135 13.48C57.9135 12.336 57.8415 11.372 57.6975 10.588C57.5615 9.804 57.3455 9.212 57.0495 8.812C56.7615 8.412 56.3855 8.212 55.9215 8.212C55.4255 8.212 54.9455 8.408 54.4815 8.8C54.0255 9.192 53.6495 9.78 53.3535 10.564C53.0655 11.34 52.9215 12.312 52.9215 13.48C52.9215 14.656 53.0655 15.636 53.3535 16.42C53.6495 17.196 54.0255 17.784 54.4815 18.184C54.9455 18.576 55.4255 18.772 55.9215 18.772ZM69.393 19.24C68.265 19.24 67.257 19.02 66.369 18.58C65.489 18.132 64.793 17.48 64.281 16.624C63.777 15.768 63.525 14.72 63.525 13.48C63.525 12.24 63.773 11.192 64.269 10.336C64.765 9.48 65.445 8.832 66.309 8.392C67.181 7.944 68.181 7.72 69.309 7.72C70.493 7.72 71.469 7.96 72.237 8.44C73.005 8.912 73.577 9.532 73.953 10.3C74.337 11.068 74.529 11.888 74.529 12.76H65.133V12.544H70.965C70.957 12.04 70.937 11.52 70.905 10.984C70.873 10.44 70.801 9.94 70.689 9.484C70.585 9.02 70.421 8.648 70.197 8.368C69.981 8.08 69.685 7.936 69.309 7.936C68.893 7.936 68.549 8.084 68.277 8.38C68.013 8.668 67.805 9.064 67.653 9.568C67.501 10.064 67.393 10.628 67.329 11.26C67.273 11.892 67.245 12.552 67.245 13.24C67.245 14.016 67.281 14.748 67.353 15.436C67.433 16.116 67.569 16.716 67.761 17.236C67.961 17.756 68.237 18.168 68.589 18.472C68.949 18.768 69.409 18.916 69.969 18.916C71.065 18.916 71.993 18.604 72.753 17.98C73.521 17.356 74.053 16.572 74.349 15.628H74.577C74.265 16.652 73.685 17.512 72.837 18.208C71.989 18.896 70.841 19.24 69.393 19.24ZM80.7264 13.78C80.7264 12.964 80.7824 12.192 80.8944 11.464C81.0144 10.736 81.2064 10.092 81.4704 9.532C81.7344 8.972 82.0864 8.532 82.5264 8.212C82.9664 7.884 83.5104 7.72 84.1584 7.72C84.7024 7.72 85.1664 7.844 85.5504 8.092C85.9344 8.332 86.2264 8.644 86.4264 9.028C86.6264 9.412 86.7264 9.816 86.7264 10.24C86.7264 10.792 86.5424 11.276 86.1744 11.692C85.8144 12.1 85.3384 12.304 84.7464 12.304C84.1464 12.304 83.6584 12.12 83.2824 11.752C82.9144 11.384 82.7304 10.944 82.7304 10.432C82.7304 9.848 82.9184 9.372 83.2944 9.004C83.6704 8.628 84.1464 8.44 84.7224 8.44C85.1064 8.44 85.4464 8.528 85.7424 8.704C86.0464 8.872 86.2824 9.092 86.4504 9.364C86.6264 9.636 86.7144 9.928 86.7144 10.24H86.4984C86.4984 9.848 86.4024 9.476 86.2104 9.124C86.0264 8.772 85.7584 8.488 85.4064 8.272C85.0544 8.056 84.6304 7.948 84.1344 7.948C83.5424 7.948 83.0384 8.1 82.6224 8.404C82.2144 8.708 81.8784 9.132 81.6144 9.676C81.3584 10.212 81.1704 10.832 81.0504 11.536C80.9304 12.24 80.8704 12.988 80.8704 13.78H80.7264ZM80.8704 7.96V18.784H82.6704V19H75.9384V18.784H77.5224V8.176H75.9384V7.96H80.8704ZM93.1046 0.999999V18.784H95.1686V19H87.6806V18.784H89.7446V1.216H87.6806V0.999999H93.1046ZM101.155 8.176L104.935 15.664L103.051 19.576L97.1353 8.176H95.6833V7.96H103.435V8.176H101.155ZM110.299 7.96V8.176H108.439L101.359 23.584C101.127 24.064 100.847 24.46 100.519 24.772C100.199 25.084 99.7633 25.24 99.2113 25.24C98.9073 25.24 98.6113 25.172 98.3233 25.036C98.0433 24.908 97.8073 24.708 97.6153 24.436C97.4313 24.172 97.3393 23.836 97.3393 23.428C97.3393 23.068 97.4233 22.744 97.5913 22.456C97.7673 22.168 97.9993 21.944 98.2873 21.784C98.5833 21.624 98.9113 21.544 99.2713 21.544C99.6073 21.544 99.9193 21.636 100.207 21.82C100.503 22.004 100.735 22.252 100.903 22.564C101.071 22.876 101.131 23.232 101.083 23.632L108.187 8.176H105.871V7.96H110.299ZM120.944 9.82V9.676H124.412C125.18 9.676 125.82 9.524 126.332 9.22C126.852 8.916 127.244 8.456 127.508 7.84C127.772 7.216 127.904 6.428 127.904 5.476C127.904 4.524 127.772 3.732 127.508 3.1C127.244 2.468 126.856 1.996 126.344 1.684C125.832 1.372 125.192 1.216 124.424 1.216H116.612V0.999999H125.012C126.34 0.999999 127.508 1.156 128.516 1.468C129.532 1.78 130.324 2.268 130.892 2.932C131.46 3.588 131.744 4.436 131.744 5.476C131.744 6.516 131.476 7.356 130.94 7.996C130.404 8.628 129.632 9.092 128.624 9.388C127.624 9.676 126.42 9.82 125.012 9.82H120.944ZM116.612 19V18.784H125.144V19H116.612ZM119.012 18.88V1.12H122.744V18.88H119.012ZM130.892 19.18C130.076 19.18 129.436 19.052 128.972 18.796C128.508 18.532 128.164 18.18 127.94 17.74C127.724 17.292 127.584 16.796 127.52 16.252C127.456 15.7 127.42 15.132 127.412 14.548C127.404 13.956 127.376 13.384 127.328 12.832C127.288 12.28 127.18 11.784 127.004 11.344C126.828 10.904 126.536 10.556 126.128 10.3C125.72 10.036 125.148 9.904 124.412 9.904H120.944V9.772H126.344C127.456 9.772 128.336 9.936 128.984 10.264C129.64 10.584 130.128 11.012 130.448 11.548C130.768 12.084 130.98 12.676 131.084 13.324C131.188 13.964 131.24 14.608 131.24 15.256C131.24 15.896 131.248 16.484 131.264 17.02C131.28 17.556 131.364 17.988 131.516 18.316C131.676 18.636 131.964 18.796 132.38 18.796C132.636 18.796 132.876 18.768 133.1 18.712C133.332 18.648 133.532 18.576 133.7 18.496L133.784 18.688C133.592 18.8 133.24 18.908 132.728 19.012C132.216 19.124 131.604 19.18 130.892 19.18ZM138.01 4.852C137.442 4.852 136.958 4.656 136.558 4.264C136.166 3.872 135.97 3.388 135.97 2.812C135.97 2.236 136.166 1.752 136.558 1.36C136.958 0.967999 137.442 0.771999 138.01 0.771999C138.594 0.771999 139.078 0.967999 139.462 1.36C139.854 1.752 140.05 2.236 140.05 2.812C140.05 3.388 139.854 3.872 139.462 4.264C139.078 4.656 138.594 4.852 138.01 4.852ZM139.69 7.96V18.784H141.274V19H134.746V18.784H136.33V8.176H134.746V7.96H139.69ZM148.494 19.24C147.406 19.24 146.418 19.032 145.53 18.616C144.65 18.2 143.95 17.568 143.43 16.72C142.918 15.864 142.662 14.784 142.662 13.48C142.662 12.336 142.89 11.332 143.346 10.468C143.802 9.604 144.466 8.932 145.338 8.452C146.218 7.972 147.282 7.732 148.53 7.732C149.466 7.732 150.286 7.88 150.99 8.176C151.694 8.464 152.242 8.852 152.634 9.34C153.026 9.828 153.222 10.372 153.222 10.972C153.222 11.556 153.034 12.016 152.658 12.352C152.282 12.688 151.838 12.856 151.326 12.856C151.022 12.856 150.718 12.792 150.414 12.664C150.11 12.528 149.858 12.324 149.658 12.052C149.458 11.772 149.358 11.42 149.358 10.996C149.358 10.428 149.554 9.988 149.946 9.676C150.346 9.356 150.806 9.196 151.326 9.196C151.814 9.196 152.246 9.352 152.622 9.664C153.006 9.968 153.198 10.404 153.198 10.972H152.994C152.994 10.524 152.878 10.12 152.646 9.76C152.422 9.392 152.122 9.08 151.746 8.824C151.378 8.568 150.974 8.372 150.534 8.236C150.102 8.1 149.674 8.032 149.25 8.032C148.674 8.032 148.21 8.208 147.858 8.56C147.506 8.904 147.242 9.356 147.066 9.916C146.89 10.468 146.77 11.06 146.706 11.692C146.65 12.316 146.622 12.912 146.622 13.48C146.622 14.168 146.658 14.832 146.73 15.472C146.81 16.104 146.946 16.672 147.138 17.176C147.338 17.68 147.614 18.08 147.966 18.376C148.318 18.664 148.77 18.808 149.322 18.808C149.962 18.808 150.526 18.676 151.014 18.412C151.502 18.14 151.914 17.764 152.25 17.284C152.594 16.804 152.866 16.248 153.066 15.616H153.294C152.982 16.696 152.442 17.572 151.674 18.244C150.914 18.908 149.854 19.24 148.494 19.24ZM154.899 19V18.784H156.483V1.216H154.899V0.999999H159.843V18.784H161.067V19H154.899ZM162.579 19V18.784H163.803V11.476C163.803 10.796 163.775 10.24 163.719 9.808C163.663 9.376 163.551 9.056 163.383 8.848C163.223 8.632 162.975 8.524 162.639 8.524C162.103 8.524 161.651 8.688 161.283 9.016C160.923 9.336 160.639 9.756 160.431 10.276C160.223 10.788 160.071 11.344 159.975 11.944C159.887 12.536 159.843 13.104 159.843 13.648L159.663 13.696C159.663 13.112 159.715 12.476 159.819 11.788C159.923 11.1 160.115 10.448 160.395 9.832C160.675 9.216 161.083 8.712 161.619 8.32C162.163 7.92 162.871 7.72 163.743 7.72C164.647 7.72 165.343 7.876 165.831 8.188C166.327 8.5 166.671 8.932 166.863 9.484C167.055 10.028 167.151 10.648 167.151 11.344V18.784H168.747V19H162.579ZM179.934 19.24C179.414 19.24 178.95 19.168 178.542 19.024C178.134 18.888 177.81 18.668 177.57 18.364C177.33 18.052 177.21 17.64 177.21 17.128V11.692C177.21 11.116 177.154 10.548 177.042 9.988C176.938 9.42 176.726 8.952 176.406 8.584C176.086 8.208 175.606 8.02 174.966 8.02C174.598 8.02 174.202 8.064 173.778 8.152C173.354 8.24 172.95 8.38 172.566 8.572C172.19 8.756 171.882 8.992 171.642 9.28C171.41 9.568 171.294 9.92 171.294 10.336H171.054C171.054 9.832 171.242 9.428 171.618 9.124C171.994 8.812 172.434 8.656 172.938 8.656C173.458 8.656 173.914 8.796 174.306 9.076C174.706 9.356 174.906 9.76 174.906 10.288C174.906 10.856 174.702 11.288 174.294 11.584C173.894 11.872 173.442 12.016 172.938 12.016C172.386 12.016 171.93 11.868 171.57 11.572C171.21 11.268 171.03 10.856 171.03 10.336C171.03 9.888 171.158 9.504 171.414 9.184C171.678 8.856 172.03 8.588 172.47 8.38C172.91 8.172 173.398 8.02 173.934 7.924C174.47 7.82 175.01 7.768 175.554 7.768C176.778 7.768 177.754 7.94 178.482 8.284C179.218 8.62 179.746 9.084 180.066 9.676C180.394 10.268 180.558 10.94 180.558 11.692V17.728C180.558 17.992 180.618 18.216 180.738 18.4C180.866 18.584 181.082 18.676 181.386 18.676C181.61 18.676 181.878 18.58 182.19 18.388C182.51 18.196 182.77 17.892 182.97 17.476L183.102 17.608C182.87 18.128 182.47 18.532 181.902 18.82C181.342 19.1 180.686 19.24 179.934 19.24ZM173.61 19.24C172.57 19.24 171.738 18.976 171.114 18.448C170.498 17.912 170.19 17.188 170.19 16.276C170.19 15.204 170.65 14.376 171.57 13.792C172.498 13.2 173.814 12.904 175.518 12.904H178.326V13.096H176.322C175.714 13.096 175.226 13.252 174.858 13.564C174.498 13.876 174.234 14.252 174.066 14.692C173.906 15.132 173.826 15.552 173.826 15.952C173.826 16.336 173.87 16.696 173.958 17.032C174.046 17.368 174.19 17.644 174.39 17.86C174.598 18.068 174.866 18.172 175.194 18.172C175.546 18.172 175.874 18.048 176.178 17.8C176.49 17.544 176.738 17.16 176.922 16.648C177.114 16.128 177.21 15.464 177.21 14.656H177.354C177.354 15.6 177.21 16.416 176.922 17.104C176.634 17.792 176.214 18.32 175.662 18.688C175.11 19.056 174.426 19.24 173.61 19.24ZM188.516 13.78C188.516 12.964 188.572 12.192 188.684 11.464C188.804 10.736 188.996 10.092 189.26 9.532C189.524 8.972 189.876 8.532 190.316 8.212C190.756 7.884 191.3 7.72 191.948 7.72C192.492 7.72 192.956 7.844 193.34 8.092C193.724 8.332 194.016 8.644 194.216 9.028C194.416 9.412 194.516 9.816 194.516 10.24C194.516 10.792 194.332 11.276 193.964 11.692C193.604 12.1 193.128 12.304 192.536 12.304C191.936 12.304 191.448 12.12 191.072 11.752C190.704 11.384 190.52 10.944 190.52 10.432C190.52 9.848 190.708 9.372 191.084 9.004C191.46 8.628 191.936 8.44 192.512 8.44C192.896 8.44 193.236 8.528 193.532 8.704C193.836 8.872 194.072 9.092 194.24 9.364C194.416 9.636 194.504 9.928 194.504 10.24H194.288C194.288 9.848 194.192 9.476 194 9.124C193.816 8.772 193.548 8.488 193.196 8.272C192.844 8.056 192.42 7.948 191.924 7.948C191.332 7.948 190.828 8.1 190.412 8.404C190.004 8.708 189.668 9.132 189.404 9.676C189.148 10.212 188.96 10.832 188.84 11.536C188.72 12.24 188.66 12.988 188.66 13.78H188.516ZM188.66 7.96V18.784H190.46V19H183.728V18.784H185.312V8.176H183.728V7.96H188.66ZM200.894 19.228C200.022 19.228 199.202 19 198.434 18.544C197.666 18.088 197.038 17.432 196.55 16.576C196.07 15.72 195.83 14.692 195.83 13.492C195.83 12.292 196.07 11.264 196.55 10.408C197.038 9.544 197.666 8.884 198.434 8.428C199.202 7.964 200.022 7.732 200.894 7.732C201.934 7.732 202.774 8.1 203.414 8.836C204.054 9.572 204.466 10.604 204.65 11.932V1.216H203.066V0.999999H208.01V18.784H209.594V19H204.65V15.064C204.466 16.384 204.054 17.408 203.414 18.136C202.774 18.864 201.934 19.228 200.894 19.228ZM201.65 18.76C202.146 18.76 202.622 18.564 203.078 18.172C203.542 17.78 203.918 17.196 204.206 16.42C204.502 15.636 204.65 14.66 204.65 13.492C204.65 12.316 204.502 11.34 204.206 10.564C203.918 9.78 203.542 9.192 203.078 8.8C202.622 8.4 202.146 8.2 201.65 8.2C201.186 8.2 200.806 8.404 200.51 8.812C200.222 9.212 200.006 9.808 199.862 10.6C199.726 11.384 199.658 12.348 199.658 13.492C199.658 14.636 199.726 15.6 199.862 16.384C200.006 17.168 200.222 17.76 200.51 18.16C200.806 18.56 201.186 18.76 201.65 18.76ZM211.137 19.24V15.496H211.353C211.569 16.208 211.885 16.828 212.301 17.356C212.725 17.884 213.229 18.292 213.813 18.58C214.405 18.86 215.053 19 215.757 19C216.253 19 216.697 18.932 217.089 18.796C217.481 18.66 217.785 18.46 218.001 18.196C218.225 17.924 218.337 17.596 218.337 17.212C218.337 16.772 218.169 16.424 217.833 16.168C217.505 15.912 217.077 15.696 216.549 15.52C216.021 15.344 215.461 15.16 214.869 14.968C214.277 14.776 213.713 14.536 213.177 14.248C212.649 13.952 212.217 13.56 211.881 13.072C211.553 12.584 211.389 11.952 211.389 11.176C211.389 10.544 211.537 9.972 211.833 9.46C212.137 8.94 212.565 8.524 213.117 8.212C213.669 7.9 214.325 7.744 215.085 7.744C215.645 7.744 216.153 7.836 216.609 8.02C217.065 8.196 217.465 8.432 217.809 8.728L219.177 7.72H219.369V11.08H219.153C218.945 10.536 218.657 10.028 218.289 9.556C217.929 9.084 217.485 8.704 216.957 8.416C216.429 8.12 215.809 7.972 215.097 7.972C214.681 7.972 214.313 8.036 213.993 8.164C213.681 8.292 213.433 8.472 213.249 8.704C213.073 8.936 212.985 9.2 212.985 9.496C212.985 9.912 213.157 10.252 213.501 10.516C213.853 10.772 214.301 10.996 214.845 11.188C215.397 11.372 215.977 11.564 216.585 11.764C217.193 11.964 217.769 12.212 218.313 12.508C218.865 12.804 219.313 13.192 219.657 13.672C220.001 14.144 220.173 14.748 220.173 15.484C220.173 16.316 219.965 17.012 219.549 17.572C219.141 18.124 218.605 18.54 217.941 18.82C217.285 19.1 216.593 19.24 215.865 19.24C215.241 19.24 214.665 19.14 214.137 18.94C213.609 18.74 213.137 18.46 212.721 18.1L211.329 19.24H211.137ZM227.725 19.24C226.517 19.24 225.477 18.976 224.605 18.448C223.733 17.92 223.057 17.22 222.577 16.348C222.105 15.476 221.869 14.52 221.869 13.48C221.869 12.44 222.105 11.484 222.577 10.612C223.057 9.74 223.733 9.04 224.605 8.512C225.477 7.984 226.517 7.72 227.725 7.72C228.933 7.72 229.973 7.984 230.845 8.512C231.725 9.04 232.401 9.74 232.873 10.612C233.345 11.484 233.581 12.44 233.581 13.48C233.581 14.52 233.345 15.476 232.873 16.348C232.401 17.22 231.725 17.92 230.845 18.448C229.973 18.976 228.933 19.24 227.725 19.24ZM227.725 19.024C228.165 19.024 228.533 18.872 228.829 18.568C229.125 18.264 229.357 17.852 229.525 17.332C229.693 16.804 229.813 16.208 229.885 15.544C229.957 14.88 229.993 14.192 229.993 13.48C229.993 12.76 229.957 12.072 229.885 11.416C229.813 10.752 229.693 10.16 229.525 9.64C229.357 9.112 229.125 8.696 228.829 8.392C228.533 8.088 228.165 7.936 227.725 7.936C227.285 7.936 226.917 8.088 226.621 8.392C226.333 8.696 226.101 9.112 225.925 9.64C225.757 10.16 225.637 10.752 225.565 11.416C225.493 12.072 225.457 12.76 225.457 13.48C225.457 14.192 225.493 14.88 225.565 15.544C225.637 16.208 225.757 16.804 225.925 17.332C226.101 17.852 226.333 18.264 226.621 18.568C226.917 18.872 227.285 19.024 227.725 19.024ZM239.941 7.96V18.784H241.165V19H235.009V18.784H236.593V8.176H235.009V7.96H239.941ZM247.261 11.344V18.784H248.857V19H242.689V18.784H243.913V11.476C243.913 10.804 243.885 10.252 243.829 9.82C243.773 9.38 243.661 9.056 243.493 8.848C243.333 8.632 243.085 8.524 242.749 8.524C242.213 8.524 241.761 8.688 241.393 9.016C241.033 9.336 240.745 9.756 240.529 10.276C240.321 10.788 240.169 11.344 240.073 11.944C239.985 12.536 239.941 13.104 239.941 13.648L239.773 13.696C239.773 13.112 239.821 12.476 239.917 11.788C240.021 11.1 240.213 10.448 240.493 9.832C240.773 9.216 241.185 8.712 241.729 8.32C242.273 7.92 242.985 7.72 243.865 7.72C244.761 7.72 245.453 7.876 245.941 8.188C246.437 8.5 246.781 8.932 246.973 9.484C247.165 10.028 247.261 10.648 247.261 11.344Z" fill="white"/>
</svg>
