<svg width="37" height="19" viewBox="0 0 37 19" fill="none" xmlns="http://www.w3.org/2000/svg">
<path d="M3.516 12.792L14.268 0.215999H11.508V-1.43051e-06H17.256V0.215999H14.568L3.816 12.792H3.516ZM0.456 18V17.784H2.616V0.215999H0.456V-1.43051e-06H8.748V0.215999H6.348V17.784H8.508V18H0.456ZM9.708 18V17.784H12.036L6.948 8.844L9.42 6.072L16.344 17.784H18.336V18H9.708ZM23.3036 8.82V8.676H26.7716C27.5396 8.676 28.1796 8.524 28.6916 8.22C29.2116 7.916 29.6036 7.456 29.8676 6.84C30.1316 6.216 30.2636 5.428 30.2636 4.476C30.2636 3.524 30.1316 2.732 29.8676 2.1C29.6036 1.468 29.2156 0.995999 28.7036 0.683999C28.1916 0.371999 27.5516 0.215999 26.7836 0.215999H18.9716V-1.43051e-06H27.3716C28.6996 -1.43051e-06 29.8676 0.155999 30.8756 0.467999C31.8916 0.779999 32.6836 1.268 33.2516 1.932C33.8196 2.588 34.1036 3.436 34.1036 4.476C34.1036 5.516 33.8356 6.356 33.2996 6.996C32.7636 7.628 31.9916 8.092 30.9836 8.388C29.9836 8.676 28.7796 8.82 27.3716 8.82H23.3036ZM18.9716 18V17.784H27.5036V18H18.9716ZM21.3716 17.88V0.119998H25.1036V17.88H21.3716ZM33.2516 18.18C32.4356 18.18 31.7956 18.052 31.3316 17.796C30.8676 17.532 30.5236 17.18 30.2996 16.74C30.0836 16.292 29.9436 15.796 29.8796 15.252C29.8156 14.7 29.7796 14.132 29.7716 13.548C29.7636 12.956 29.7356 12.384 29.6876 11.832C29.6476 11.28 29.5396 10.784 29.3636 10.344C29.1876 9.904 28.8956 9.556 28.4876 9.3C28.0796 9.036 27.5076 8.904 26.7716 8.904H23.3036V8.772H28.7036C29.8156 8.772 30.6956 8.936 31.3436 9.264C31.9996 9.584 32.4876 10.012 32.8076 10.548C33.1276 11.084 33.3396 11.676 33.4436 12.324C33.5476 12.964 33.5996 13.608 33.5996 14.256C33.5996 14.896 33.6076 15.484 33.6236 16.02C33.6396 16.556 33.7236 16.988 33.8756 17.316C34.0356 17.636 34.3236 17.796 34.7396 17.796C34.9956 17.796 35.2356 17.768 35.4596 17.712C35.6916 17.648 35.8916 17.576 36.0596 17.496L36.1436 17.688C35.9516 17.8 35.5996 17.908 35.0876 18.012C34.5756 18.124 33.9636 18.18 33.2516 18.18Z" fill="white"/>
</svg>
